<svg xmlns="http://www.w3.org/2000/svg" version="1.1" xmlns:xlink="http://www.w3.org/1999/xlink" width="1000" height="1000"><metadata><rdf:RDF xmlns:rdf="http://www.w3.org/1999/02/22-rdf-syntax-ns#" xmlns:dc="http://purl.org/dc/elements/1.1/"><rdf:Description><dc:creator>RealFaviconGenerator</dc:creator><dc:source>https://realfavicongenerator.net</dc:source></rdf:Description></rdf:RDF></metadata><style>
    #light-icon {
      display: inline;
    }
    #dark-icon {
      display: none;
    }

    @media (prefers-color-scheme: dark) {
      #light-icon {
        display: none;
      }
      #dark-icon {
        display: inline;
      }
    }
  </style><g id="light-icon"><svg xmlns="http://www.w3.org/2000/svg" version="1.1" xmlns:xlink="http://www.w3.org/1999/xlink" width="1000" height="1000"><g><g transform="matrix(1.0256410256410255,0,0,1.0256410256410255,61.02564102564105,5.684341886080802e-14)"><svg xmlns="http://www.w3.org/2000/svg" version="1.2" viewBox="0 0 856 975" width="856" height="975"><style>
		.s0 { fill: #000000 } 
	</style><g>
		<path class="s0" d="m197.5 10.7c-2.2 2.2-3.3 5.2-5.7 15.8-4.5 20.7-6.1 37.5-6.1 67-0.1 29.7 0.5 37.5 5.4 72.8l3.1 21.8-5.8 9.7c-22.6 37.8-34.1 74.5-37.9 121.3-0.6 7.2-0.9 7.9-5.4 13.5-19.1 23.9-35.8 54.5-45.6 83.9-11.3 33.9-15.8 62.5-15.9 100.5 0 54.2 11.9 108.8 35.8 163.2 20.1 46 44.9 83.8 80 122.1 4.9 5.3 8.6 10 8.2 10.4-1.1 1.2-12.6-5.1-23.6-13-27.1-19.4-46.7-38.4-69.7-67.8-11.8-15-20.2-20-34.6-20.7-19.5-1-35.2 7.9-42.8 24.3-10 21.3-2.5 42.6 28.2 79.5 64.5 77.5 175.1 130 292.8 139 31.6 2.4 81.4 0.8 109.6-3.5 74.5-11.4 145.1-41.5 205.4-87.5 63.3-48.3 111.6-115.4 135.7-188.5 22.8-69.5 24.5-138.5 4.9-207.2-19.3-67.5-56.3-125.3-107.6-168.1l-8.5-7.1-2.3-10.8c-6.1-29.4-17.2-57.7-33.2-84.9l-5.2-8.8 1.7-10.5c8.7-54.8 9.1-112.2 1-150.3-3.8-18.1-8-21.1-20.7-14.5-23.8 12.5-65.6 45.1-101.2 79.1-5.5 5.3-10.3 9.6-10.7 9.6-0.3 0-5.5-1.5-11.5-3.4-13.7-4.3-30.3-8-46.3-10.3-19.5-2.8-71.1-2.5-91 0.5-14.8 2.3-36.8 7.5-47.4 11.1-3.3 1.2-6.3 2.1-6.8 2.1-0.5 0-7.3-6.1-15.1-13.6-22.2-21.3-43-38.9-65.2-55-28.5-20.7-41.1-26.7-46-21.7zm134.6 185.8c14 4.8 20.4 20 14.8 34.9-6.1 16.3-29.1 20.8-42.7 8.3-4.1-3.8-6.5-9.7-7-17.5-0.4-6.6-0.2-7.8 2.7-13.6 3.3-6.7 6.2-9.3 13.7-12 5.2-1.9 13-1.9 18.5-0.1zm205.2 0.5c12.1 4.6 18.9 17.8 15.7 30.9-1.8 7.6-5.8 12.4-13.3 16-13.5 6.4-28.6 2-34.9-10.3-2.6-5-3.5-15.9-1.9-20.9 4.8-14.3 19.7-21.2 34.4-15.7zm-91.8 34.5c4.3 4.2 3.4 6.9-4.8 14.9-8.5 8.3-13.2 11.2-17.1 10.2-2.6-0.6-13.9-9.4-18.3-14.3-1.6-1.6-2.3-3.7-2.3-6.3 0-6.5 1.6-7 22.3-7 17.6 0 17.8 0 20.2 2.5zm48 227c16.2 3.2 29.2 9.9 39.5 20.5 7.8 7.9 12.3 16 15 26.6 5.9 22.9-1.5 43.6-20.4 57.4l-6.6 4.8 5.6 3.3c13.2 7.5 24.4 21.7 28 35.3 1.9 7.1 1.8 24.9-0.2 31.7-5.6 18.9-20.3 34.7-40.1 42.9-12.5 5.2-33.1 8.5-46.5 7.4-9.6-0.8-26-4.1-32.1-6.5-13.4-5.3-28.7-18.7-34.9-30.5-5.6-10.7-7.2-17.3-7.3-29.9 0-13.7 2.6-22.5 10-33.5 4.9-7.2 7.6-9.5 22.4-19.1l2.5-1.6-6-4c-15.2-10.4-22.4-24.6-22.4-43.9 0-19.7 10.4-38.5 27.8-50.1 17.3-11.4 41.7-15.5 65.7-10.8zm-266.7-0.3c6.8 1.7 14.2 9.3 16.6 17.2 2.3 7.3 1.7 13.7-2.1 21.4-8.9 18.1-35.5 18.2-45.7 0.2-2.7-4.8-3.1-6.4-3.1-13 0.2-19.4 15-30.7 34.3-25.8zm133 116.5l-0.3 108.8h-21.5-21.5l-0.5-81.7c-0.3-44.9-0.8-81.9-1.2-82.3-0.4-0.4-8.1 3.9-17.3 9.5-15.8 9.7-21.9 13-22.8 12-1.2-1.4-11.5-35.5-11-36.6 0.3-0.8 10-7.5 21.7-14.9 11.6-7.4 24.5-15.7 28.6-18.4l7.5-5 19.3-0.1h19.2zm323.6-44.7c10.8 2.7 17 6.3 25.1 14.5 8 8.1 12.7 16.2 15.4 26.7 1.7 6.5 1.9 12.3 2.1 52.8 0.2 25 0.2 48.8 0.2 52.7l-0.2 7.3h-20.5c-20.4 0-20.5 0-21-2.3-0.3-1.2-0.6-22.9-0.8-48.2-0.2-33-0.7-47.1-1.5-49.7-1.9-5.7-7.2-11.8-12.7-14.7-4.2-2.2-6.2-2.6-13-2.5-13.2 0.1-20.4 4.4-25.7 15.2l-3.3 6.7-0.5 46.7c-0.3 31.3-0.9 47.1-1.6 47.8-0.7 0.7-7.6 1-20.5 0.8l-19.4-0.3-0.3-75.6-0.2-75.7 2.2-0.6c3-0.8 29.2-0.8 34.1 0l3.7 0.7v6.7c0 3.7 0.2 6.9 0.5 7.2 0.3 0.3 3.4-2.2 6.8-5.6 5.6-5.6 7.1-6.5 15.7-9.4 11.8-3.9 23.3-4.3 35.4-1.2zm-444.6 2.5c1 0.4 1.2 16 1 75.7l-0.3 75.3h-21-21l-0.3-75.7-0.2-75.7 6.2-0.3c7.6-0.4 33.8 0.2 35.6 0.7z"></path>
		<path class="s0" d="m462.6 498.7c-8.3 2.5-13.1 6.5-16.7 13.8-2.9 5.9-3.1 7.1-2.6 13.1 1.2 15.6 16 26.5 34.1 25.1 13.4-1 22.7-7.2 26.6-17.7 5.5-14.6-2.3-30-17.3-34.5-6.4-1.9-17.7-1.8-24.1 0.2z"></path>
		<path class="s0" d="m462 589.5c-6.6 1.9-14.9 7.1-18.4 11.8-4.3 5.7-6 10.6-5.9 18.2 0.1 9.2 2.6 14.7 9.3 20.8 10.9 9.8 31.8 12.1 46.5 5.2 19.6-9.3 23.7-33.9 8.1-48.3-2.3-2.2-6.9-4.9-10.2-6.2-7.7-2.9-21.6-3.6-29.4-1.5z"></path>
	</g></svg></g></g></svg></g><g id="dark-icon"><svg xmlns="http://www.w3.org/2000/svg" version="1.1" xmlns:xlink="http://www.w3.org/1999/xlink" width="1000" height="1000"><g clip-path="url(#SvgjsClipPath1063)"><rect width="1000" height="1000" fill="#ffffff"></rect><g transform="matrix(0.9230769230769231,0,0,0.9230769230769231,104.9230769230769,50)"><svg xmlns="http://www.w3.org/2000/svg" version="1.2" viewBox="0 0 856 975" width="856" height="975"><style>
		.s0 { fill: #000000 } 
	</style><g>
		<path class="s0" d="m197.5 10.7c-2.2 2.2-3.3 5.2-5.7 15.8-4.5 20.7-6.1 37.5-6.1 67-0.1 29.7 0.5 37.5 5.4 72.8l3.1 21.8-5.8 9.7c-22.6 37.8-34.1 74.5-37.9 121.3-0.6 7.2-0.9 7.9-5.4 13.5-19.1 23.9-35.8 54.5-45.6 83.9-11.3 33.9-15.8 62.5-15.9 100.5 0 54.2 11.9 108.8 35.8 163.2 20.1 46 44.9 83.8 80 122.1 4.9 5.3 8.6 10 8.2 10.4-1.1 1.2-12.6-5.1-23.6-13-27.1-19.4-46.7-38.4-69.7-67.8-11.8-15-20.2-20-34.6-20.7-19.5-1-35.2 7.9-42.8 24.3-10 21.3-2.5 42.6 28.2 79.5 64.5 77.5 175.1 130 292.8 139 31.6 2.4 81.4 0.8 109.6-3.5 74.5-11.4 145.1-41.5 205.4-87.5 63.3-48.3 111.6-115.4 135.7-188.5 22.8-69.5 24.5-138.5 4.9-207.2-19.3-67.5-56.3-125.3-107.6-168.1l-8.5-7.1-2.3-10.8c-6.1-29.4-17.2-57.7-33.2-84.9l-5.2-8.8 1.7-10.5c8.7-54.8 9.1-112.2 1-150.3-3.8-18.1-8-21.1-20.7-14.5-23.8 12.5-65.6 45.1-101.2 79.1-5.5 5.3-10.3 9.6-10.7 9.6-0.3 0-5.5-1.5-11.5-3.4-13.7-4.3-30.3-8-46.3-10.3-19.5-2.8-71.1-2.5-91 0.5-14.8 2.3-36.8 7.5-47.4 11.1-3.3 1.2-6.3 2.1-6.8 2.1-0.5 0-7.3-6.1-15.1-13.6-22.2-21.3-43-38.9-65.2-55-28.5-20.7-41.1-26.7-46-21.7zm134.6 185.8c14 4.8 20.4 20 14.8 34.9-6.1 16.3-29.1 20.8-42.7 8.3-4.1-3.8-6.5-9.7-7-17.5-0.4-6.6-0.2-7.8 2.7-13.6 3.3-6.7 6.2-9.3 13.7-12 5.2-1.9 13-1.9 18.5-0.1zm205.2 0.5c12.1 4.6 18.9 17.8 15.7 30.9-1.8 7.6-5.8 12.4-13.3 16-13.5 6.4-28.6 2-34.9-10.3-2.6-5-3.5-15.9-1.9-20.9 4.8-14.3 19.7-21.2 34.4-15.7zm-91.8 34.5c4.3 4.2 3.4 6.9-4.8 14.9-8.5 8.3-13.2 11.2-17.1 10.2-2.6-0.6-13.9-9.4-18.3-14.3-1.6-1.6-2.3-3.7-2.3-6.3 0-6.5 1.6-7 22.3-7 17.6 0 17.8 0 20.2 2.5zm48 227c16.2 3.2 29.2 9.9 39.5 20.5 7.8 7.9 12.3 16 15 26.6 5.9 22.9-1.5 43.6-20.4 57.4l-6.6 4.8 5.6 3.3c13.2 7.5 24.4 21.7 28 35.3 1.9 7.1 1.8 24.9-0.2 31.7-5.6 18.9-20.3 34.7-40.1 42.9-12.5 5.2-33.1 8.5-46.5 7.4-9.6-0.8-26-4.1-32.1-6.5-13.4-5.3-28.7-18.7-34.9-30.5-5.6-10.7-7.2-17.3-7.3-29.9 0-13.7 2.6-22.5 10-33.5 4.9-7.2 7.6-9.5 22.4-19.1l2.5-1.6-6-4c-15.2-10.4-22.4-24.6-22.4-43.9 0-19.7 10.4-38.5 27.8-50.1 17.3-11.4 41.7-15.5 65.7-10.8zm-266.7-0.3c6.8 1.7 14.2 9.3 16.6 17.2 2.3 7.3 1.7 13.7-2.1 21.4-8.9 18.1-35.5 18.2-45.7 0.2-2.7-4.8-3.1-6.4-3.1-13 0.2-19.4 15-30.7 34.3-25.8zm133 116.5l-0.3 108.8h-21.5-21.5l-0.5-81.7c-0.3-44.9-0.8-81.9-1.2-82.3-0.4-0.4-8.1 3.9-17.3 9.5-15.8 9.7-21.9 13-22.8 12-1.2-1.4-11.5-35.5-11-36.6 0.3-0.8 10-7.5 21.7-14.9 11.6-7.4 24.5-15.7 28.6-18.4l7.5-5 19.3-0.1h19.2zm323.6-44.7c10.8 2.7 17 6.3 25.1 14.5 8 8.1 12.7 16.2 15.4 26.7 1.7 6.5 1.9 12.3 2.1 52.8 0.2 25 0.2 48.8 0.2 52.7l-0.2 7.3h-20.5c-20.4 0-20.5 0-21-2.3-0.3-1.2-0.6-22.9-0.8-48.2-0.2-33-0.7-47.1-1.5-49.7-1.9-5.7-7.2-11.8-12.7-14.7-4.2-2.2-6.2-2.6-13-2.5-13.2 0.1-20.4 4.4-25.7 15.2l-3.3 6.7-0.5 46.7c-0.3 31.3-0.9 47.1-1.6 47.8-0.7 0.7-7.6 1-20.5 0.8l-19.4-0.3-0.3-75.6-0.2-75.7 2.2-0.6c3-0.8 29.2-0.8 34.1 0l3.7 0.7v6.7c0 3.7 0.2 6.9 0.5 7.2 0.3 0.3 3.4-2.2 6.8-5.6 5.6-5.6 7.1-6.5 15.7-9.4 11.8-3.9 23.3-4.3 35.4-1.2zm-444.6 2.5c1 0.4 1.2 16 1 75.7l-0.3 75.3h-21-21l-0.3-75.7-0.2-75.7 6.2-0.3c7.6-0.4 33.8 0.2 35.6 0.7z"></path>
		<path class="s0" d="m462.6 498.7c-8.3 2.5-13.1 6.5-16.7 13.8-2.9 5.9-3.1 7.1-2.6 13.1 1.2 15.6 16 26.5 34.1 25.1 13.4-1 22.7-7.2 26.6-17.7 5.5-14.6-2.3-30-17.3-34.5-6.4-1.9-17.7-1.8-24.1 0.2z"></path>
		<path class="s0" d="m462 589.5c-6.6 1.9-14.9 7.1-18.4 11.8-4.3 5.7-6 10.6-5.9 18.2 0.1 9.2 2.6 14.7 9.3 20.8 10.9 9.8 31.8 12.1 46.5 5.2 19.6-9.3 23.7-33.9 8.1-48.3-2.3-2.2-6.9-4.9-10.2-6.2-7.7-2.9-21.6-3.6-29.4-1.5z"></path>
	</g></svg></g></g><defs><clipPath id="SvgjsClipPath1063"><rect width="1000" height="1000" x="0" y="0" rx="300" ry="300"></rect></clipPath></defs></svg></g></svg>