<svg version="1.2" xmlns="http://www.w3.org/2000/svg" viewBox="0 0 1183 751" width="1183" height="751">
	<style>
		.s0 { fill: #000000 } 
	</style>
	<g>
		<path class="s0" d="m181.8 34.2c-2.1 1.6-4.2 9.1-6.5 22.8-1.5 8.5-1.8 16.2-1.8 40.5 0.1 27.3 0.3 31.6 2.8 48.2l2.7 18.1-6.9 12.6c-12.1 22.3-19.7 44.5-23.1 67.9-1.1 7.3-2 15-2 17.1 0 3.2-0.9 5.1-4.4 9.5-18.2 23.4-33.2 55.3-39.6 84.7-2.8 13.2-5 34.1-5 48.9 0 73.5 29.8 148.8 82.3 207.5 4.7 5.2 8.1 9.7 7.6 9.8-1.5 0.6-15.4-8.5-26.3-17.1-12.3-9.7-30.8-28.2-38.4-38.6-7.2-9.7-10.4-12.7-17.2-16-4.5-2.1-6.9-2.6-13-2.6-12.5 0.1-22.7 6.1-28.6 16.7-2.6 4.8-2.9 6.2-2.9 14.8 0 11.2 1.1 14 10.8 28.8 12 18.2 32.7 39.5 53.4 54.9 57.8 43 133.5 66.1 209.8 64 29.1-0.8 47.8-3.2 71-8.8 69.9-17.1 132.2-55.8 174.4-108.4 26.7-33.3 44-67.5 54.1-107 2.1-8.3 4.6-19.7 5.5-25.5 2.3-14.2 3.1-47.6 1.5-62.6-4.6-44.5-20.8-88-46.2-123.8-12.8-17.9-24.8-30.8-43.5-46.7-4-3.3-4.3-4.1-6.3-13.3-4-18.5-12-38.9-22.5-57.6l-5.4-9.6 1.9-10.9c5.8-34.3 5.8-82.9 0.1-107-3.8-15.8-6.5-16.1-26.6-3.1-18.8 12.3-39.7 29.3-61.3 49.9l-8.4 8-4.1-1.1c-2.3-0.5-9.4-2.4-15.7-4-19.6-5.1-33.8-6.5-60.8-5.9-25.7 0.5-38.6 2.2-55.7 7.3-14.6 4.4-12.4 5-26.4-8.1-15.7-14.7-31.6-28.1-45.6-38.1-23.1-16.6-29.3-19.6-33.7-16.2zm101.4 137.9c7.2 3.6 11.2 13.2 8.9 21.1-2.8 9.2-8.9 13.8-18.4 13.8-11.4 0-18.7-7.1-18.7-18.3 0-9.5 4.7-15.9 13.8-18.7 3.6-1.1 9.8-0.2 14.4 2.1zm150.1 0.1c12.4 6.2 12.2 26.4-0.3 32.8-4.7 2.4-13.8 2.7-17.8 0.6-3.6-1.9-7.8-6.5-9.1-9.9-1.5-3.9-1.4-11.1 0.3-15 1.6-4 7.7-9.5 11.4-10.3 1.5-0.3 3.2-0.7 3.7-0.9 1.9-0.6 8 0.8 11.8 2.7zm-70.1 24.5c3 2.7 2.1 4.8-4.4 10.8-8.6 8-9.9 8.4-14.5 5.2-6.6-4.6-12.3-10.4-12.3-12.5 0-4.5 2.3-5.2 16.2-5.2 10.8 0 13.5 0.3 15 1.7zm39.8 167.4c10 2.7 16.5 6.3 23 12.5 13.8 13.2 17.9 33.4 9.7 48.9-2.5 4.9-8.7 11.5-13.5 14.5l-4.5 2.8 4.9 2.5c6.6 3.3 13.9 10.8 17.8 18.2 3 5.8 3.1 6.4 3.1 18.5 0 12.1-0.1 12.7-3.3 19.3-6.5 13.2-19.3 22.9-36.2 27.4-10.1 2.7-30.2 2.4-40.5-0.5-17.5-5.1-30.5-16.3-35.5-30.7-7.2-21 0-41.2 18.9-52.3l4.4-2.5-2.9-2.1c-1.6-1.1-5.2-4.3-8-7-14.2-14.1-13.5-40.1 1.6-55.6 14.3-14.7 38.4-20.2 61-13.9zm-194.3 1.5c4.7 3.8 6.5 7.4 7.1 14 1.8 21-26.6 29-35.7 10.1-2.6-5.3-2.7-11.9-0.2-17.2 3.5-7.7 8.9-10.7 18.3-10.3 5.7 0.3 7.3 0.8 10.5 3.4zm91.8 82.4v79.5h-15.5-15.5l-0.5-60.5c-0.3-33.3-0.7-60.6-0.8-60.6-0.1-0.1-6.5 3.6-14.2 8.2-7.7 4.6-14.5 8.4-15 8.4-0.5 0-2.7-5.9-5-13.1-3.3-10.3-3.9-13.4-2.9-14.5 0.6-0.8 5-3.8 9.8-6.6 4.7-2.9 14-8.7 20.6-13l11.9-7.9 13.6 0.3 13.5 0.3zm242.8-31.1c11.5 4.5 21.9 17.3 24.7 30.4 0.6 3.3 0.9 18.7 0.8 42.7l-0.3 37.5-11.5 0.3c-6.3 0.2-12.9 0-14.7-0.3l-3.1-0.6-0.5-34.2c-0.4-37.9-0.7-40-6.6-45.8-8.3-8.3-24.4-7-30.9 2.6-4.8 6.9-5.2 10.6-5.2 45.1v32.4l-2.2 0.5c-1.3 0.3-7.9 0.4-14.8 0.3l-12.5-0.3-0.6-27.5c-0.3-15.1-0.3-40.1 0-55.5l0.6-28h14 14l0.6 4.2c0.3 2.4 0.8 4.5 1.1 4.8 0.3 0.3 2-0.8 3.8-2.5 7.3-6.8 14.5-9.1 27.5-8.6 7.4 0.2 11.5 0.9 15.8 2.5zm-331.5 0.3c1.7 1.7 1.7 107.9 0 109.6-0.8 0.8-5.6 1.2-14.8 1.2-9.2 0-14-0.4-14.8-1.2-0.9-0.9-1.2-14.6-1.2-55.3 0-29.8 0.3-54.5 0.7-54.8 1.2-1.3 28.8-0.8 30.1 0.5z"/>
		<path class="s0" d="m379.1 391.1c-15.9 3.1-23 19.6-13.4 31 6.6 7.8 21 10.3 31 5.4 14.7-7.4 14.8-27.4 0-34.3-5.2-2.5-11.8-3.3-17.6-2.1z"/>
		<path class="s0" d="m375.8 458.3c-9.5 2.7-16.7 10.1-18.3 18.9-1 5.4 1.7 13.7 5.7 17.5 11.6 11 33.5 10.4 43.6-1.1 9.6-10.9 5.2-27.5-8.8-33.5-6.4-2.7-16-3.5-22.2-1.8z"/>
		<path class="s0" d="m1020.7 351.7c-0.4 0.3-0.7 41.5-0.7 91.5v90.9l13.6-0.3 13.5-0.3 2.9-6.5c1.6-3.6 3.5-6.6 4.2-6.8 0.8-0.1 3.4 1.6 5.8 3.9 9.1 8.3 18.6 11.9 32 11.9 23.6 0 39.7-13.5 47.2-39.5 2-7.1 2.3-10.2 2.3-27.5 0-22.1-1.2-29.2-7.2-41.7-9.5-19.7-27.3-29.4-48.2-26.4-10.7 1.6-18.7 5.7-25.5 13.3-3.1 3.4-5.8 5.9-6 5.7-0.3-0.2 0-9.2 0.5-19.9 0.9-18.2 0.5-46.3-0.7-48.2-0.6-0.9-32.8-1.1-33.7-0.1zm69.9 79.2c5.4 2.5 10.7 8.9 13 15.9 1.6 4.7 1.9 8.6 1.8 21.7 0 14.3-0.3 16.6-2.3 21.9-2.6 6.5-7.8 12.8-12.5 15.3-4 2.1-14.9 2.1-19.6 0-6-2.7-10.6-7.9-12.9-14.7-1.9-5.4-3-22.9-2.1-33.9 1.2-15.3 6.4-24.3 15.7-27.1 5.1-1.5 14.5-1.1 18.9 0.9z"/>
		<path class="s0" d="m680.5 363.2c-0.3 0.7-0.4 39.3-0.3 85.8l0.3 84.5 17.8 0.3 17.7 0.2v-37-37h34.5 34.5v37 37l17.8-0.2 17.7-0.3 0.3-83.8c0.1-56.6-0.1-84.4-0.8-85.8-1-1.8-2.3-1.9-18-1.9h-17l-0.2 33.7-0.3 33.8h-34-34l-0.5-33.5-0.5-33.5-17.3-0.3c-13.2-0.2-17.4 0-17.7 1z"/>
		<path class="s0" d="m861 448.9c0 51.6 0.5 56.8 6.3 67.5 6.9 12.6 18.1 18.6 36.2 19.3 18.4 0.8 30.4-3.2 40.2-13.5 2.9-3 5.6-5.3 5.8-5 0.3 0.3 1.6 4 2.9 8.4l2.3 7.9 13.7 0.3 13.6 0.3v-65.6-65.5l-17.7 0.2-17.8 0.3-0.5 40.5c-0.5 38.3-0.6 40.8-2.7 46.2-4.1 11-11 16.6-21.4 17.6-12 1.1-18.7-2.4-23-12-2.4-5.2-2.4-5.7-2.9-48.8l-0.5-43.5-17.2-0.3-17.3-0.2z"/>
	</g>
</svg>